<?xml version="1.0" encoding="UTF-8"?>
<svg xmlns="http://www.w3.org/2000/svg" xmlns:xlink="http://www.w3.org/1999/xlink" width="371.396875pt" height="263.52pt" viewBox="0 0 371.396875 263.52" version="1.2">
<defs>
<g>
<symbol overflow="visible" id="glyph0-0">
<path style="stroke:none;" d="M 2.550781 0 L 2.550781 -0.933594 L 4.832031 -0.933594 L 4.832031 -11.824219 L 2.191406 -10.117188 L 2.191406 -11.265625 L 5.390625 -13.332031 L 6.59375 -13.332031 L 6.59375 -0.933594 L 8.875 -0.933594 L 8.875 0 Z M 2.550781 0 "/>
</symbol>
<symbol overflow="visible" id="glyph0-1">
<path style="stroke:none;" d="M 1.6875 -0.917969 C 1.6875 -1.238281 1.796875 -1.507812 2.011719 -1.742188 C 2.226562 -1.957031 2.515625 -2.085938 2.855469 -2.085938 C 3.179688 -2.085938 3.449219 -1.957031 3.683594 -1.742188 C 3.898438 -1.507812 4.023438 -1.238281 4.023438 -0.917969 C 4.023438 -0.59375 3.898438 -0.304688 3.683594 -0.0898438 C 3.449219 0.125 3.179688 0.234375 2.855469 0.234375 C 2.515625 0.234375 2.226562 0.125 2.011719 -0.0898438 C 1.796875 -0.304688 1.6875 -0.574219 1.6875 -0.917969 Z M 1.6875 -0.917969 "/>
</symbol>
<symbol overflow="visible" id="glyph0-2">
<path style="stroke:none;" d="M 6.269531 -4.4375 L 6.269531 -11.410156 L 1.796875 -4.4375 Z M 10.132812 0 L 4.167969 0 L 4.167969 -0.933594 L 6.269531 -0.933594 L 6.269531 -3.503906 L 0.558594 -3.503906 L 0.558594 -4.457031 L 6.289062 -13.332031 L 8.03125 -13.332031 L 8.03125 -4.4375 L 10.527344 -4.4375 L 10.527344 -3.503906 L 8.03125 -3.503906 L 8.03125 -0.933594 L 10.132812 -0.933594 Z M 10.132812 0 "/>
</symbol>
<symbol overflow="visible" id="glyph0-3">
<path style="stroke:none;" d="M 5.875 -0.609375 C 6.703125 -0.609375 7.332031 -0.898438 7.78125 -1.507812 C 8.210938 -2.121094 8.445312 -2.984375 8.445312 -4.132812 C 8.445312 -5.265625 8.210938 -6.125 7.78125 -6.738281 C 7.332031 -7.347656 6.703125 -7.652344 5.875 -7.652344 C 5.03125 -7.652344 4.382812 -7.347656 3.953125 -6.773438 C 3.523438 -6.179688 3.304688 -5.335938 3.304688 -4.242188 C 3.304688 -3.074219 3.523438 -2.175781 3.972656 -1.546875 C 4.402344 -0.917969 5.046875 -0.609375 5.875 -0.609375 Z M 3.019531 -7.203125 C 3.414062 -7.636719 3.863281 -7.976562 4.367188 -8.191406 C 4.867188 -8.410156 5.425781 -8.515625 6.074219 -8.515625 C 7.367188 -8.515625 8.410156 -8.121094 9.164062 -7.332031 C 9.917969 -6.539062 10.296875 -5.480469 10.296875 -4.132812 C 10.296875 -2.804688 9.882812 -1.742188 9.074219 -0.953125 C 8.246094 -0.160156 7.167969 0.234375 5.804688 0.234375 C 4.332031 0.234375 3.179688 -0.304688 2.390625 -1.402344 C 1.597656 -2.496094 1.203125 -4.078125 1.203125 -6.125 C 1.203125 -8.410156 1.671875 -10.1875 2.605469 -11.445312 C 3.539062 -12.703125 4.867188 -13.332031 6.59375 -13.332031 C 7.0625 -13.332031 7.546875 -13.277344 8.050781 -13.207031 C 8.550781 -13.117188 9.074219 -12.992188 9.613281 -12.8125 L 9.613281 -10.65625 L 8.625 -10.65625 C 8.550781 -11.230469 8.320312 -11.679688 7.941406 -12.003906 C 7.5625 -12.308594 7.0625 -12.46875 6.414062 -12.46875 C 5.265625 -12.46875 4.421875 -12.039062 3.863281 -11.175781 C 3.304688 -10.3125 3.019531 -8.984375 3.019531 -7.203125 Z M 3.019531 -7.203125 "/>
</symbol>
<symbol overflow="visible" id="glyph0-4">
<path style="stroke:none;" d="M 8.371094 -3.574219 C 8.371094 -4.511719 8.140625 -5.226562 7.671875 -5.75 C 7.203125 -6.269531 6.539062 -6.539062 5.714844 -6.539062 C 4.867188 -6.539062 4.222656 -6.269531 3.753906 -5.75 C 3.289062 -5.226562 3.054688 -4.511719 3.054688 -3.574219 C 3.054688 -2.640625 3.289062 -1.90625 3.753906 -1.382812 C 4.222656 -0.863281 4.867188 -0.609375 5.714844 -0.609375 C 6.539062 -0.609375 7.203125 -0.863281 7.671875 -1.382812 C 8.140625 -1.90625 8.371094 -2.640625 8.371094 -3.574219 Z M 8.011719 -9.9375 C 8.011719 -10.726562 7.796875 -11.355469 7.402344 -11.804688 C 6.988281 -12.234375 6.433594 -12.46875 5.714844 -12.46875 C 4.996094 -12.46875 4.421875 -12.234375 4.023438 -11.804688 C 3.613281 -11.355469 3.414062 -10.726562 3.414062 -9.9375 C 3.414062 -9.128906 3.613281 -8.5 4.023438 -8.066406 C 4.421875 -7.617188 4.996094 -7.402344 5.714844 -7.402344 C 6.433594 -7.402344 6.988281 -7.617188 7.402344 -8.066406 C 7.796875 -8.5 8.011719 -9.128906 8.011719 -9.9375 Z M 7.0625 -6.972656 C 8.050781 -6.828125 8.820312 -6.46875 9.378906 -5.875 C 9.9375 -5.265625 10.222656 -4.511719 10.222656 -3.574219 C 10.222656 -2.355469 9.828125 -1.402344 9.054688 -0.753906 C 8.265625 -0.0898438 7.152344 0.234375 5.714844 0.234375 C 4.257812 0.234375 3.144531 -0.0898438 2.371094 -0.753906 C 1.582031 -1.402344 1.203125 -2.355469 1.203125 -3.574219 C 1.203125 -4.511719 1.472656 -5.265625 2.03125 -5.875 C 2.585938 -6.46875 3.359375 -6.828125 4.367188 -6.972656 C 3.46875 -7.113281 2.804688 -7.457031 2.335938 -7.976562 C 1.867188 -8.480469 1.636719 -9.144531 1.636719 -9.9375 C 1.636719 -10.976562 1.996094 -11.804688 2.714844 -12.414062 C 3.433594 -13.027344 4.4375 -13.332031 5.714844 -13.332031 C 6.972656 -13.332031 7.976562 -13.027344 8.695312 -12.414062 C 9.414062 -11.804688 9.792969 -10.976562 9.792969 -9.9375 C 9.792969 -9.144531 9.539062 -8.480469 9.074219 -7.976562 C 8.605469 -7.457031 7.921875 -7.113281 7.0625 -6.972656 Z M 7.0625 -6.972656 "/>
</symbol>
<symbol overflow="visible" id="glyph0-5">
<path style="stroke:none;" d="M 2.300781 -9.972656 L 1.3125 -9.972656 L 1.3125 -12.308594 C 1.921875 -12.632812 2.550781 -12.882812 3.199219 -13.0625 C 3.828125 -13.242188 4.457031 -13.332031 5.066406 -13.332031 C 6.433594 -13.332031 7.511719 -12.992188 8.300781 -12.34375 C 9.089844 -11.679688 9.488281 -10.78125 9.488281 -9.648438 C 9.488281 -8.355469 8.589844 -6.828125 6.792969 -5.046875 C 6.648438 -4.90625 6.558594 -4.816406 6.484375 -4.742188 L 3.179688 -1.4375 L 8.640625 -1.4375 L 8.640625 -3.054688 L 9.667969 -3.054688 L 9.667969 0 L 1.222656 0 L 1.222656 -0.953125 L 5.191406 -4.921875 C 6.054688 -5.785156 6.683594 -6.59375 7.0625 -7.332031 C 7.4375 -8.066406 7.636719 -8.839844 7.636719 -9.648438 C 7.636719 -10.527344 7.402344 -11.210938 6.933594 -11.714844 C 6.46875 -12.21875 5.839844 -12.46875 5.046875 -12.46875 C 4.203125 -12.46875 3.558594 -12.253906 3.109375 -11.839844 C 2.640625 -11.425781 2.371094 -10.796875 2.300781 -9.972656 Z M 2.300781 -9.972656 "/>
</symbol>
<symbol overflow="visible" id="glyph0-6">
<path style="stroke:none;" d="M 5.714844 -0.609375 C 6.613281 -0.609375 7.277344 -1.097656 7.726562 -2.085938 C 8.15625 -3.054688 8.390625 -4.546875 8.390625 -6.539062 C 8.390625 -8.515625 8.15625 -10.007812 7.726562 -10.996094 C 7.277344 -11.964844 6.613281 -12.46875 5.714844 -12.46875 C 4.816406 -12.46875 4.132812 -11.964844 3.703125 -10.996094 C 3.253906 -10.007812 3.035156 -8.515625 3.035156 -6.539062 C 3.035156 -4.546875 3.253906 -3.054688 3.703125 -2.085938 C 4.132812 -1.097656 4.816406 -0.609375 5.714844 -0.609375 Z M 5.714844 0.234375 C 4.277344 0.234375 3.164062 -0.359375 2.371094 -1.546875 C 1.582031 -2.730469 1.1875 -4.382812 1.1875 -6.539062 C 1.1875 -8.679688 1.582031 -10.347656 2.371094 -11.535156 C 3.164062 -12.722656 4.277344 -13.332031 5.714844 -13.332031 C 7.132812 -13.332031 8.246094 -12.722656 9.039062 -11.535156 C 9.828125 -10.347656 10.242188 -8.679688 10.242188 -6.539062 C 10.242188 -4.382812 9.828125 -2.730469 9.039062 -1.546875 C 8.246094 -0.359375 7.132812 0.234375 5.714844 0.234375 Z M 5.714844 0.234375 "/>
</symbol>
<symbol overflow="visible" id="glyph1-0">
<path style="stroke:none;" d="M 0 -0.988281 L -0.933594 -0.988281 L -0.933594 -2.660156 L -12.164062 -2.660156 L -12.164062 -0.988281 L -13.097656 -0.988281 L -13.097656 -11.714844 L -10.1875 -11.714844 L -10.1875 -10.636719 L -12.019531 -10.636719 L -12.019531 -4.4375 L -7.636719 -4.4375 L -7.636719 -8.910156 L -9.269531 -8.910156 L -9.269531 -9.988281 L -4.921875 -9.988281 L -4.921875 -8.910156 L -6.558594 -8.910156 L -6.558594 -4.4375 L -0.933594 -4.4375 L -0.933594 -6.539062 L 0 -6.539062 Z M 0 -0.988281 "/>
</symbol>
<symbol overflow="visible" id="glyph1-1">
<path style="stroke:none;" d="M -12.21875 -1.742188 C -12.488281 -1.742188 -12.722656 -1.832031 -12.917969 -2.03125 C -13.117188 -2.226562 -13.222656 -2.460938 -13.222656 -2.75 C -13.222656 -3 -13.117188 -3.234375 -12.917969 -3.433594 C -12.722656 -3.628906 -12.488281 -3.738281 -12.21875 -3.738281 C -11.929688 -3.738281 -11.695312 -3.628906 -11.515625 -3.449219 C -11.320312 -3.253906 -11.230469 -3.019531 -11.230469 -2.75 C -11.230469 -2.460938 -11.320312 -2.226562 -11.515625 -2.03125 C -11.695312 -1.832031 -11.929688 -1.742188 -12.21875 -1.742188 Z M -0.933594 -3.808594 L -0.933594 -5.335938 L 0 -5.335938 L 0 -0.648438 L -0.933594 -0.648438 L -0.933594 -2.191406 L -8.390625 -2.191406 L -8.390625 -0.648438 L -9.324219 -0.648438 L -9.324219 -3.808594 Z M -0.933594 -3.808594 "/>
</symbol>
<symbol overflow="visible" id="glyph1-2">
<path style="stroke:none;" d="M -9.34375 -8.589844 L -7.007812 -8.589844 L -7.007812 -7.652344 C -7.472656 -7.617188 -7.816406 -7.492188 -8.050781 -7.277344 C -8.265625 -7.042969 -8.390625 -6.703125 -8.390625 -6.269531 C -8.390625 -5.480469 -8.101562 -4.867188 -7.5625 -4.4375 C -7.007812 -4.007812 -6.214844 -3.808594 -5.191406 -3.808594 L -0.933594 -3.808594 L -0.933594 -5.675781 L 0 -5.675781 L 0 -0.738281 L -0.933594 -0.738281 L -0.933594 -2.191406 L -8.410156 -2.191406 L -8.410156 -0.648438 L -9.324219 -0.648438 L -9.324219 -3.808594 L -7.671875 -3.808594 C -8.320312 -4.113281 -8.785156 -4.511719 -9.109375 -5.011719 C -9.414062 -5.515625 -9.578125 -6.125 -9.578125 -6.84375 C -9.578125 -7.097656 -9.539062 -7.382812 -9.503906 -7.671875 C -9.46875 -7.960938 -9.414062 -8.265625 -9.34375 -8.589844 Z M -9.34375 -8.589844 "/>
</symbol>
<symbol overflow="visible" id="glyph1-3">
<path style="stroke:none;" d="M -0.519531 -1.007812 L -2.695312 -1.007812 L -2.695312 -1.941406 C -1.996094 -1.957031 -1.472656 -2.175781 -1.132812 -2.585938 C -0.773438 -3 -0.609375 -3.613281 -0.609375 -4.421875 C -0.609375 -5.136719 -0.738281 -5.695312 -1.023438 -6.074219 C -1.292969 -6.449219 -1.6875 -6.648438 -2.210938 -6.648438 C -2.605469 -6.648438 -2.945312 -6.503906 -3.199219 -6.234375 C -3.449219 -5.945312 -3.71875 -5.371094 -4.007812 -4.472656 L -4.402344 -3.304688 C -4.652344 -2.496094 -4.976562 -1.921875 -5.371094 -1.5625 C -5.75 -1.203125 -6.234375 -1.023438 -6.84375 -1.023438 C -7.691406 -1.023438 -8.355469 -1.328125 -8.839844 -1.957031 C -9.324219 -2.585938 -9.578125 -3.449219 -9.578125 -4.5625 C -9.578125 -5.046875 -9.503906 -5.570312 -9.378906 -6.109375 C -9.253906 -6.648438 -9.074219 -7.222656 -8.820312 -7.796875 L -6.792969 -7.796875 L -6.792969 -6.863281 C -7.382812 -6.828125 -7.851562 -6.628906 -8.191406 -6.234375 C -8.535156 -5.839844 -8.714844 -5.300781 -8.714844 -4.617188 C -8.714844 -3.933594 -8.589844 -3.414062 -8.355469 -3.074219 C -8.101562 -2.714844 -7.742188 -2.550781 -7.277344 -2.550781 C -6.882812 -2.550781 -6.558594 -2.675781 -6.324219 -2.945312 C -6.089844 -3.199219 -5.855469 -3.738281 -5.605469 -4.527344 L -5.210938 -5.804688 C -4.921875 -6.683594 -4.582031 -7.3125 -4.167969 -7.707031 C -3.753906 -8.101562 -3.234375 -8.300781 -2.585938 -8.300781 C -1.6875 -8.300781 -1.007812 -7.960938 -0.503906 -7.277344 C 0 -6.59375 0.234375 -5.675781 0.234375 -4.492188 C 0.234375 -3.882812 0.160156 -3.304688 0.0546875 -2.730469 C -0.0546875 -2.15625 -0.25 -1.582031 -0.519531 -1.007812 Z M -0.519531 -1.007812 "/>
</symbol>
<symbol overflow="visible" id="glyph1-4">
<path style="stroke:none;" d="M -8.390625 -1.941406 L -8.390625 -0.519531 L -9.324219 -0.519531 L -9.324219 -1.941406 L -12.21875 -1.941406 L -12.21875 -3.558594 L -9.324219 -3.558594 L -9.324219 -6.59375 L -8.390625 -6.59375 L -8.390625 -3.558594 L -2.460938 -3.558594 C -1.671875 -3.558594 -1.148438 -3.628906 -0.933594 -3.792969 C -0.71875 -3.933594 -0.609375 -4.222656 -0.609375 -4.636719 C -0.609375 -5.046875 -0.738281 -5.355469 -0.988281 -5.550781 C -1.238281 -5.730469 -1.636719 -5.839844 -2.191406 -5.855469 L -2.191406 -7.078125 C -1.328125 -7.023438 -0.71875 -6.792969 -0.339844 -6.378906 C 0.0351562 -5.964844 0.234375 -5.335938 0.234375 -4.492188 C 0.234375 -3.558594 0.0195312 -2.894531 -0.378906 -2.515625 C -0.773438 -2.121094 -1.472656 -1.941406 -2.460938 -1.941406 Z M -8.390625 -1.941406 "/>
</symbol>
<symbol overflow="visible" id="glyph1-5">
<path style="stroke:none;" d="M -5.496094 -0.789062 L -5.496094 -5.28125 L -4.132812 -5.28125 L -4.132812 -0.789062 Z M -5.496094 -0.789062 "/>
</symbol>
<symbol overflow="visible" id="glyph1-6">
<path style="stroke:none;" d="M -9.324219 -6.359375 L -9.324219 -9.378906 L -0.933594 -9.378906 L -0.933594 -10.90625 L 0 -10.90625 L 0 -7.761719 L -1.652344 -7.761719 C -1.023438 -7.457031 -0.558594 -7.0625 -0.234375 -6.59375 C 0.0703125 -6.125 0.234375 -5.570312 0.234375 -4.957031 C 0.234375 -3.917969 -0.0546875 -3.144531 -0.628906 -2.660156 C -1.203125 -2.175781 -2.136719 -1.941406 -3.394531 -1.941406 L -8.390625 -1.941406 L -8.390625 -0.484375 L -9.324219 -0.484375 L -9.324219 -3.558594 L -3.898438 -3.558594 C -2.75 -3.558594 -1.976562 -3.683594 -1.5625 -3.972656 C -1.132812 -4.257812 -0.933594 -4.742188 -0.933594 -5.460938 C -0.933594 -6.214844 -1.203125 -6.773438 -1.761719 -7.167969 C -2.300781 -7.5625 -3.109375 -7.761719 -4.152344 -7.761719 L -8.390625 -7.761719 L -8.390625 -6.359375 Z M -9.324219 -6.359375 "/>
</symbol>
<symbol overflow="visible" id="glyph1-7">
<path style="stroke:none;" d="M 0 -0.738281 L -0.933594 -0.738281 L -0.933594 -2.191406 L -8.390625 -2.191406 L -8.390625 -0.648438 L -9.324219 -0.648438 L -9.324219 -3.808594 L -7.671875 -3.808594 C -8.28125 -4.097656 -8.769531 -4.492188 -9.089844 -4.957031 C -9.414062 -5.425781 -9.578125 -5.984375 -9.578125 -6.628906 C -9.578125 -7.652344 -9.269531 -8.410156 -8.695312 -8.894531 C -8.101562 -9.378906 -7.1875 -9.628906 -5.929688 -9.628906 L -0.933594 -9.628906 L -0.933594 -11.066406 L 0 -11.066406 L 0 -6.613281 L -0.933594 -6.613281 L -0.933594 -8.011719 L -5.425781 -8.011719 C -6.558594 -8.011719 -7.332031 -7.871094 -7.761719 -7.582031 C -8.191406 -7.292969 -8.410156 -6.808594 -8.410156 -6.109375 C -8.410156 -5.355469 -8.121094 -4.777344 -7.582031 -4.382812 C -7.023438 -3.988281 -6.234375 -3.808594 -5.191406 -3.808594 L -0.933594 -3.808594 L -0.933594 -5.210938 L 0 -5.210938 Z M 0 -0.738281 "/>
</symbol>
<symbol overflow="visible" id="glyph1-8">
<path style="stroke:none;" d=""/>
</symbol>
<symbol overflow="visible" id="glyph1-9">
<path style="stroke:none;" d="M -2.804688 -9.234375 C -1.796875 -9 -1.042969 -8.570312 -0.539062 -7.921875 C -0.0195312 -7.277344 0.234375 -6.433594 0.234375 -5.40625 C 0.234375 -4.042969 -0.199219 -2.964844 -1.097656 -2.136719 C -1.996094 -1.3125 -3.179688 -0.898438 -4.671875 -0.898438 C -6.144531 -0.898438 -7.332031 -1.3125 -8.230469 -2.136719 C -9.128906 -2.964844 -9.578125 -4.042969 -9.578125 -5.40625 C -9.578125 -5.984375 -9.503906 -6.574219 -9.359375 -7.167969 C -9.21875 -7.742188 -9.019531 -8.335938 -8.75 -8.929688 L -6.359375 -8.929688 L -6.359375 -7.996094 C -7.167969 -7.871094 -7.761719 -7.601562 -8.140625 -7.1875 C -8.515625 -6.773438 -8.714844 -6.179688 -8.714844 -5.425781 C -8.714844 -4.546875 -8.371094 -3.882812 -7.691406 -3.449219 C -7.007812 -3 -6 -2.785156 -4.652344 -2.785156 C -3.304688 -2.785156 -2.300781 -3 -1.617188 -3.449219 C -0.933594 -3.882812 -0.609375 -4.546875 -0.609375 -5.425781 C -0.609375 -6.109375 -0.789062 -6.664062 -1.148438 -7.078125 C -1.507812 -7.492188 -2.066406 -7.78125 -2.804688 -7.941406 Z M -2.804688 -9.234375 "/>
</symbol>
<symbol overflow="visible" id="glyph1-10">
<path style="stroke:none;" d="M -0.609375 -5.40625 C -0.609375 -6.269531 -0.953125 -6.917969 -1.636719 -7.367188 C -2.316406 -7.796875 -3.324219 -8.03125 -4.652344 -8.03125 C -5.984375 -8.03125 -7.007812 -7.796875 -7.691406 -7.367188 C -8.371094 -6.917969 -8.714844 -6.269531 -8.714844 -5.40625 C -8.714844 -4.546875 -8.371094 -3.882812 -7.691406 -3.449219 C -7.007812 -3 -5.984375 -2.785156 -4.652344 -2.785156 C -3.324219 -2.785156 -2.316406 -3 -1.636719 -3.449219 C -0.953125 -3.882812 -0.609375 -4.546875 -0.609375 -5.40625 Z M 0.234375 -5.40625 C 0.234375 -4.042969 -0.199219 -2.964844 -1.097656 -2.136719 C -1.996094 -1.3125 -3.179688 -0.898438 -4.671875 -0.898438 C -6.144531 -0.898438 -7.332031 -1.292969 -8.230469 -2.121094 C -9.128906 -2.945312 -9.578125 -4.042969 -9.578125 -5.40625 C -9.578125 -6.773438 -9.128906 -7.851562 -8.230469 -8.679688 C -7.332031 -9.503906 -6.144531 -9.917969 -4.671875 -9.917969 C -3.179688 -9.917969 -1.996094 -9.503906 -1.097656 -8.679688 C -0.199219 -7.851562 0.234375 -6.773438 0.234375 -5.40625 Z M 0.234375 -5.40625 "/>
</symbol>
<symbol overflow="visible" id="glyph1-11">
<path style="stroke:none;" d="M -4.492188 -9.738281 L -4.492188 -2.785156 L -4.421875 -2.785156 C -3.164062 -2.785156 -2.210938 -3.019531 -1.5625 -3.484375 C -0.917969 -3.953125 -0.609375 -4.652344 -0.609375 -5.585938 C -0.609375 -6.289062 -0.789062 -6.863281 -1.167969 -7.332031 C -1.527344 -7.78125 -2.085938 -8.101562 -2.820312 -8.28125 L -2.820312 -9.578125 C -1.796875 -9.324219 -1.023438 -8.839844 -0.519531 -8.15625 C -0.0195312 -7.457031 0.234375 -6.539062 0.234375 -5.425781 C 0.234375 -4.0625 -0.199219 -2.964844 -1.097656 -2.136719 C -1.996094 -1.3125 -3.179688 -0.898438 -4.671875 -0.898438 C -6.144531 -0.898438 -7.332031 -1.292969 -8.230469 -2.121094 C -9.128906 -2.929688 -9.578125 -3.988281 -9.578125 -5.316406 C -9.578125 -6.71875 -9.128906 -7.816406 -8.265625 -8.570312 C -7.402344 -9.324219 -6.144531 -9.703125 -4.492188 -9.738281 Z M -5.425781 -7.832031 C -6.503906 -7.796875 -7.332031 -7.5625 -7.886719 -7.132812 C -8.425781 -6.703125 -8.714844 -6.109375 -8.714844 -5.316406 C -8.714844 -4.5625 -8.425781 -3.988281 -7.871094 -3.558594 C -7.3125 -3.125 -6.503906 -2.875 -5.425781 -2.785156 Z M -5.425781 -7.832031 "/>
</symbol>
</g>
<clipPath id="clip1">
  <path d="M 0.0351562 0 L 370.757812 0 L 370.757812 263.039062 L 0.0351562 263.039062 Z M 0.0351562 0 "/>
</clipPath>
<clipPath id="clip2">
  <path d="M 349 7.1875 L 351 7.1875 L 351 252.359375 L 349 252.359375 Z M 349 7.1875 "/>
</clipPath>
<clipPath id="clip3">
  <path d="M 258 7.1875 L 260 7.1875 L 260 252.359375 L 258 252.359375 Z M 258 7.1875 "/>
</clipPath>
<clipPath id="clip4">
  <path d="M 168 7.1875 L 169 7.1875 L 169 252.359375 L 168 252.359375 Z M 168 7.1875 "/>
</clipPath>
<clipPath id="clip5">
  <path d="M 77 7.1875 L 79 7.1875 L 79 252.359375 L 77 252.359375 Z M 77 7.1875 "/>
</clipPath>
<clipPath id="clip6">
  <path d="M 64.167969 215 L 363.570312 215 L 363.570312 216 L 64.167969 216 Z M 64.167969 215 "/>
</clipPath>
<clipPath id="clip7">
  <path d="M 64.167969 169 L 363.570312 169 L 363.570312 171 L 64.167969 171 Z M 64.167969 169 "/>
</clipPath>
<clipPath id="clip8">
  <path d="M 64.167969 123 L 363.570312 123 L 363.570312 125 L 64.167969 125 Z M 64.167969 123 "/>
</clipPath>
<clipPath id="clip9">
  <path d="M 64.167969 77 L 363.570312 77 L 363.570312 79 L 64.167969 79 Z M 64.167969 77 "/>
</clipPath>
<clipPath id="clip10">
  <path d="M 64.167969 32 L 363.570312 32 L 363.570312 34 L 64.167969 34 Z M 64.167969 32 "/>
</clipPath>
</defs>
<g id="surface1">
<g clip-path="url(#clip1)" clip-rule="nonzero">
<path style=" stroke:none;fill-rule:nonzero;fill:rgb(100%,100%,100%);fill-opacity:1;" d="M 0.0351562 263.039062 L 370.757812 263.039062 L 370.757812 0 L 0.0351562 0 Z M 0.0351562 263.039062 "/>
</g>
<path style=" stroke:none;fill-rule:nonzero;fill:rgb(100%,100%,100%);fill-opacity:1;" d="M 64.167969 252.359375 L 363.570312 252.359375 L 363.570312 7.1875 L 64.167969 7.1875 Z M 64.167969 252.359375 "/>
<g clip-path="url(#clip2)" clip-rule="nonzero">
<path style="fill:none;stroke-width:0.8;stroke-linecap:butt;stroke-linejoin:round;stroke:rgb(69.018555%,69.018555%,69.018555%);stroke-opacity:0.5;stroke-dasharray:2.96,1.28;stroke-miterlimit:10;" d="M 350.561703 10.700954 L 350.561703 256.319408 " transform="matrix(0.998182,0,0,-0.998182,0.0366193,263.040873)"/>
</g>
<path style="fill:none;stroke-width:0.8;stroke-linecap:butt;stroke-linejoin:round;stroke:rgb(0%,0%,0%);stroke-opacity:1;stroke-miterlimit:10;" d="M 350.561703 10.700954 L 350.561703 7.198492 " transform="matrix(0.998182,0,0,-0.998182,0.0366193,263.040873)"/>
<g clip-path="url(#clip3)" clip-rule="nonzero">
<path style="fill:none;stroke-width:0.8;stroke-linecap:butt;stroke-linejoin:round;stroke:rgb(69.018555%,69.018555%,69.018555%);stroke-opacity:0.5;stroke-dasharray:2.96,1.28;stroke-miterlimit:10;" d="M 259.669883 10.700954 L 259.669883 256.319408 " transform="matrix(0.998182,0,0,-0.998182,0.0366193,263.040873)"/>
</g>
<path style="fill:none;stroke-width:0.8;stroke-linecap:butt;stroke-linejoin:round;stroke:rgb(0%,0%,0%);stroke-opacity:1;stroke-miterlimit:10;" d="M 259.669883 10.700954 L 259.669883 7.198492 " transform="matrix(0.998182,0,0,-0.998182,0.0366193,263.040873)"/>
<g clip-path="url(#clip4)" clip-rule="nonzero">
<path style="fill:none;stroke-width:0.8;stroke-linecap:butt;stroke-linejoin:round;stroke:rgb(69.018555%,69.018555%,69.018555%);stroke-opacity:0.5;stroke-dasharray:2.96,1.28;stroke-miterlimit:10;" d="M 168.774149 10.700954 L 168.774149 256.319408 " transform="matrix(0.998182,0,0,-0.998182,0.0366193,263.040873)"/>
</g>
<path style="fill:none;stroke-width:0.8;stroke-linecap:butt;stroke-linejoin:round;stroke:rgb(0%,0%,0%);stroke-opacity:1;stroke-miterlimit:10;" d="M 168.774149 10.700954 L 168.774149 7.198492 " transform="matrix(0.998182,0,0,-0.998182,0.0366193,263.040873)"/>
<g clip-path="url(#clip5)" clip-rule="nonzero">
<path style="fill:none;stroke-width:0.8;stroke-linecap:butt;stroke-linejoin:round;stroke:rgb(69.018555%,69.018555%,69.018555%);stroke-opacity:0.5;stroke-dasharray:2.96,1.28;stroke-miterlimit:10;" d="M 77.882329 10.700954 L 77.882329 256.319408 " transform="matrix(0.998182,0,0,-0.998182,0.0366193,263.040873)"/>
</g>
<path style="fill:none;stroke-width:0.8;stroke-linecap:butt;stroke-linejoin:round;stroke:rgb(0%,0%,0%);stroke-opacity:1;stroke-miterlimit:10;" d="M 77.882329 10.700954 L 77.882329 7.198492 " transform="matrix(0.998182,0,0,-0.998182,0.0366193,263.040873)"/>
<g clip-path="url(#clip6)" clip-rule="nonzero">
<path style="fill:none;stroke-width:0.8;stroke-linecap:butt;stroke-linejoin:round;stroke:rgb(69.018555%,69.018555%,69.018555%);stroke-opacity:0.5;stroke-dasharray:2.96,1.28;stroke-miterlimit:10;" d="M 64.248164 47.627468 L 364.195867 47.627468 " transform="matrix(0.998182,0,0,-0.998182,0.0366193,263.040873)"/>
</g>
<path style="fill:none;stroke-width:0.8;stroke-linecap:butt;stroke-linejoin:round;stroke:rgb(0%,0%,0%);stroke-opacity:1;stroke-miterlimit:10;" d="M 64.248164 47.627468 L 60.745702 47.627468 " transform="matrix(0.998182,0,0,-0.998182,0.0366193,263.040873)"/>
<g style="fill:rgb(0%,0%,0%);fill-opacity:1;">
  <use xlink:href="#glyph0-0" x="28.606455" y="222.322098"/>
  <use xlink:href="#glyph0-1" x="40.03364" y="222.322098"/>
  <use xlink:href="#glyph0-2" x="45.747233" y="222.322098"/>
</g>
<g clip-path="url(#clip7)" clip-rule="nonzero">
<path style="fill:none;stroke-width:0.8;stroke-linecap:butt;stroke-linejoin:round;stroke:rgb(69.018555%,69.018555%,69.018555%);stroke-opacity:0.5;stroke-dasharray:2.96,1.28;stroke-miterlimit:10;" d="M 64.248164 93.433408 L 364.195867 93.433408 " transform="matrix(0.998182,0,0,-0.998182,0.0366193,263.040873)"/>
</g>
<path style="fill:none;stroke-width:0.8;stroke-linecap:butt;stroke-linejoin:round;stroke:rgb(0%,0%,0%);stroke-opacity:1;stroke-miterlimit:10;" d="M 64.248164 93.433408 L 60.745702 93.433408 " transform="matrix(0.998182,0,0,-0.998182,0.0366193,263.040873)"/>
<g style="fill:rgb(0%,0%,0%);fill-opacity:1;">
  <use xlink:href="#glyph0-0" x="28.606455" y="176.602113"/>
  <use xlink:href="#glyph0-1" x="40.03364" y="176.602113"/>
  <use xlink:href="#glyph0-3" x="45.747233" y="176.602113"/>
</g>
<g clip-path="url(#clip8)" clip-rule="nonzero">
<path style="fill:none;stroke-width:0.8;stroke-linecap:butt;stroke-linejoin:round;stroke:rgb(69.018555%,69.018555%,69.018555%);stroke-opacity:0.5;stroke-dasharray:2.96,1.28;stroke-miterlimit:10;" d="M 64.248164 139.235434 L 364.195867 139.235434 " transform="matrix(0.998182,0,0,-0.998182,0.0366193,263.040873)"/>
</g>
<path style="fill:none;stroke-width:0.8;stroke-linecap:butt;stroke-linejoin:round;stroke:rgb(0%,0%,0%);stroke-opacity:1;stroke-miterlimit:10;" d="M 64.248164 139.235434 L 60.745702 139.235434 " transform="matrix(0.998182,0,0,-0.998182,0.0366193,263.040873)"/>
<g style="fill:rgb(0%,0%,0%);fill-opacity:1;">
  <use xlink:href="#glyph0-0" x="28.606455" y="130.882129"/>
  <use xlink:href="#glyph0-1" x="40.03364" y="130.882129"/>
  <use xlink:href="#glyph0-4" x="45.747233" y="130.882129"/>
</g>
<g clip-path="url(#clip9)" clip-rule="nonzero">
<path style="fill:none;stroke-width:0.8;stroke-linecap:butt;stroke-linejoin:round;stroke:rgb(69.018555%,69.018555%,69.018555%);stroke-opacity:0.5;stroke-dasharray:2.96,1.28;stroke-miterlimit:10;" d="M 64.248164 185.037461 L 364.195867 185.037461 " transform="matrix(0.998182,0,0,-0.998182,0.0366193,263.040873)"/>
</g>
<path style="fill:none;stroke-width:0.8;stroke-linecap:butt;stroke-linejoin:round;stroke:rgb(0%,0%,0%);stroke-opacity:1;stroke-miterlimit:10;" d="M 64.248164 185.037461 L 60.745702 185.037461 " transform="matrix(0.998182,0,0,-0.998182,0.0366193,263.040873)"/>
<g style="fill:rgb(0%,0%,0%);fill-opacity:1;">
  <use xlink:href="#glyph0-5" x="28.606455" y="85.162144"/>
  <use xlink:href="#glyph0-1" x="40.03364" y="85.162144"/>
  <use xlink:href="#glyph0-6" x="45.747233" y="85.162144"/>
</g>
<g clip-path="url(#clip10)" clip-rule="nonzero">
<path style="fill:none;stroke-width:0.8;stroke-linecap:butt;stroke-linejoin:round;stroke:rgb(69.018555%,69.018555%,69.018555%);stroke-opacity:0.5;stroke-dasharray:2.96,1.28;stroke-miterlimit:10;" d="M 64.248164 230.843401 L 364.195867 230.843401 " transform="matrix(0.998182,0,0,-0.998182,0.0366193,263.040873)"/>
</g>
<path style="fill:none;stroke-width:0.8;stroke-linecap:butt;stroke-linejoin:round;stroke:rgb(0%,0%,0%);stroke-opacity:1;stroke-miterlimit:10;" d="M 64.248164 230.843401 L 60.745702 230.843401 " transform="matrix(0.998182,0,0,-0.998182,0.0366193,263.040873)"/>
<g style="fill:rgb(0%,0%,0%);fill-opacity:1;">
  <use xlink:href="#glyph0-5" x="28.606455" y="39.442159"/>
  <use xlink:href="#glyph0-1" x="40.03364" y="39.442159"/>
  <use xlink:href="#glyph0-5" x="45.747233" y="39.442159"/>
</g>
<g style="fill:rgb(0%,0%,0%);fill-opacity:1;">
  <use xlink:href="#glyph1-0" x="20.870545" y="201.432155"/>
  <use xlink:href="#glyph1-1" x="20.870545" y="188.962868"/>
  <use xlink:href="#glyph1-2" x="20.870545" y="183.213341"/>
  <use xlink:href="#glyph1-3" x="20.870545" y="174.624984"/>
  <use xlink:href="#glyph1-4" x="20.870545" y="165.407773"/>
  <use xlink:href="#glyph1-5" x="20.870545" y="158.18493"/>
  <use xlink:href="#glyph1-4" x="20.870545" y="152.111991"/>
  <use xlink:href="#glyph1-6" x="20.870545" y="144.889148"/>
  <use xlink:href="#glyph1-2" x="20.870545" y="133.318224"/>
  <use xlink:href="#glyph1-7" x="20.870545" y="124.729868"/>
  <use xlink:href="#glyph1-8" x="20.870545" y="113.158944"/>
  <use xlink:href="#glyph1-3" x="20.870545" y="107.445351"/>
  <use xlink:href="#glyph1-9" x="20.870545" y="98.228141"/>
  <use xlink:href="#glyph1-10" x="20.870545" y="88.166468"/>
  <use xlink:href="#glyph1-2" x="20.870545" y="77.35017"/>
  <use xlink:href="#glyph1-11" x="20.870545" y="68.761813"/>
</g>
<path style="fill:none;stroke-width:0.8;stroke-linecap:square;stroke-linejoin:miter;stroke:rgb(0%,0%,0%);stroke-opacity:1;stroke-miterlimit:10;" d="M 64.248164 10.700954 L 64.248164 256.319408 " transform="matrix(0.998182,0,0,-0.998182,0.0366193,263.040873)"/>
<path style="fill:none;stroke-width:0.8;stroke-linecap:square;stroke-linejoin:miter;stroke:rgb(0%,0%,0%);stroke-opacity:1;stroke-miterlimit:10;" d="M 64.248164 10.700954 L 364.195867 10.700954 " transform="matrix(0.998182,0,0,-0.998182,0.0366193,263.040873)"/>
<path style="fill:none;stroke-width:2;stroke-linecap:square;stroke-linejoin:round;stroke:rgb(5.490112%,29.803467%,35.68573%);stroke-opacity:1;stroke-miterlimit:10;" d="M 350.561703 245.154577 L 259.669883 187.902044 L 168.774149 193.627297 L 77.882329 21.865785 " transform="matrix(0.998182,0,0,-0.998182,0.0366193,263.040873)"/>
<path style="fill-rule:nonzero;fill:rgb(5.490112%,29.803467%,35.68573%);fill-opacity:1;stroke-width:1;stroke-linecap:butt;stroke-linejoin:round;stroke:rgb(5.490112%,29.803467%,35.68573%);stroke-opacity:1;stroke-miterlimit:10;" d="M -0.00108099 -2.998515 C 0.797246 -2.998515 1.560352 -2.685446 2.119963 -2.121921 C 2.683488 -1.558397 3.00047 -0.795291 3.00047 -0.000877474 C 3.00047 0.797449 2.683488 1.560555 2.119963 2.120166 C 1.560352 2.683691 0.797246 3.000674 -0.00108099 3.000674 C -0.795494 3.000674 -1.5586 2.683691 -2.122125 2.120166 C -2.68565 1.560555 -2.998719 0.797449 -2.998719 -0.000877474 C -2.998719 -0.795291 -2.68565 -1.558397 -2.122125 -2.121921 C -1.5586 -2.685446 -0.795494 -2.998515 -0.00108099 -2.998515 Z M -0.00108099 -2.998515 " transform="matrix(0.998182,0,0,-0.998182,349.962017,18.331155)"/>
<path style="fill-rule:nonzero;fill:rgb(5.490112%,29.803467%,35.68573%);fill-opacity:1;stroke-width:1;stroke-linecap:butt;stroke-linejoin:round;stroke:rgb(5.490112%,29.803467%,35.68573%);stroke-opacity:1;stroke-miterlimit:10;" d="M 0.00103804 -3.000882 C 0.795451 -3.000882 1.558557 -2.6839 2.122082 -2.120375 C 2.685607 -1.556851 2.998676 -0.793744 2.998676 0.000668766 C 2.998676 0.795082 2.685607 1.558188 2.122082 2.121713 C 1.558557 2.685237 0.795451 2.998307 0.00103804 2.998307 C -0.797288 2.998307 -1.560395 2.685237 -2.120006 2.121713 C -2.68353 1.558188 -3.000513 0.795082 -3.000513 0.000668766 C -3.000513 -0.793744 -2.68353 -1.556851 -2.120006 -2.120375 C -1.560395 -2.6839 -0.797288 -3.000882 0.00103804 -3.000882 Z M 0.00103804 -3.000882 " transform="matrix(0.998182,0,0,-0.998182,259.233339,75.481136)"/>
<path style="fill-rule:nonzero;fill:rgb(5.490112%,29.803467%,35.68573%);fill-opacity:1;stroke-width:1;stroke-linecap:butt;stroke-linejoin:round;stroke:rgb(5.490112%,29.803467%,35.68573%);stroke-opacity:1;stroke-miterlimit:10;" d="M -0.000756282 -3.001037 C 0.793657 -3.001037 1.560676 -2.684054 2.120288 -2.12053 C 2.683812 -1.557005 3.000795 -0.793899 3.000795 0.000514142 C 3.000795 0.794927 2.683812 1.558033 2.120288 2.121558 C 1.560676 2.685083 0.793657 2.998152 -0.000756282 2.998152 C -0.795169 2.998152 -1.558276 2.685083 -2.1218 2.121558 C -2.685325 1.558033 -2.998394 0.794927 -2.998394 0.000514142 C -2.998394 -0.793899 -2.685325 -1.557005 -2.1218 -2.12053 C -1.558276 -2.684054 -0.795169 -3.001037 -0.000756282 -3.001037 Z M -0.000756282 -3.001037 " transform="matrix(0.998182,0,0,-0.998182,168.504661,69.766138)"/>
<path style="fill-rule:nonzero;fill:rgb(5.490112%,29.803467%,35.68573%);fill-opacity:1;stroke-width:1;stroke-linecap:butt;stroke-linejoin:round;stroke:rgb(5.490112%,29.803467%,35.68573%);stroke-opacity:1;stroke-miterlimit:10;" d="M 0.00136276 -3.000312 C 0.795776 -3.000312 1.558882 -2.683329 2.122407 -2.119804 C 2.682018 -1.560193 2.999001 -0.797087 2.999001 0.0012395 C 2.999001 0.795653 2.682018 1.558759 2.122407 2.122283 C 1.558882 2.685808 0.795776 2.998877 0.00136276 2.998877 C -0.796964 2.998877 -1.56007 2.685808 -2.119681 2.122283 C -2.683206 1.558759 -3.000188 0.795653 -3.000188 0.0012395 C -3.000188 -0.797087 -2.683206 -1.560193 -2.119681 -2.119804 C -1.56007 -2.683329 -0.796964 -3.000312 0.00136276 -3.000312 Z M 0.00136276 -3.000312 " transform="matrix(0.998182,0,0,-0.998182,77.775983,241.216081)"/>
</g>
</svg>
